# xmcd
#
# Track frame offsets:
#	150
#	12646
#	23999
#	36243
#	45505
#	55730
#	70612
#	81189
#	100027
#	113785
#	126324
#	138608
#	150363
#	161164
#	174972
#
# Disc length: 2488 seconds
#
# Revision: 0
# Processed by: cddbd v1.5PL3 Copyright (c) Steve Scherf et al.
# Submitted via: EasyCDDAExtractor 4.5.0.2
#
DISCID=bf09b60f
DTITLE=басиос  - валос ле том амдяеа басио
DYEAR=1900
DGENRE=каийа
TTITLE0=о яылгс
TTITLE1=то тайили
TTITLE2=есаи мими айола
TTITLE3=текеиысам та тсицаяа лоу
TTITLE4=тгс ияидас та вяылата
TTITLE5=о цуиос тгс мувтас
TTITLE6=дысе тгм йаядиа соу
TTITLE7=адумалиес
TTITLE8=пеяаса ыяаиес ыяес
TTITLE9=то йокам
TTITLE10=апотонимысг
TTITLE11=йаиме йаиме
TTITLE12=оти пеис есу
TTITLE13=ти евы циатяе лоу
TTITLE14=вояеуоуме стг хакасса
EXTD=
EXTT0=
EXTT1=
EXTT2=
EXTT3=
EXTT4=
EXTT5=
EXTT6=
EXTT7=
EXTT8=
EXTT9=
EXTT10=
EXTT11=
EXTT12=
EXTT13=
EXTT14=
PLAYORDER=
